Coordinates
version=1
nRows=26
nColumns=22
inDegrees=yes

Units are S.I. units (second, meters, Newtons, ...)
If the header above contains a line with 'inDegrees', this indicates whether rotational values are in degrees (yes) or radians (no).

endheader
time	pelvis_tilt	pelvis_list	pelvis_rotation	pelvis_tx	pelvis_ty	pelvis_tz	hip_flexion_r	hip_adduction_r	hip_rotation_r	knee_angle_r	ankle_angle_r	subtalar_angle_r	hip_flexion_l	hip_adduction_l	hip_rotation_l	knee_angle_l	ankle_angle_l	subtalar_angle_l	lumbar_extension	lumbar_bending	lumbar_rotation
      2.91000000	      0.81690406	     -0.12824997	      0.02930235	      0.22934411	      0.89856387	      0.09236377	     -2.68201063	      2.42024625	      0.35285637	    -33.49630351	     14.33603936	      3.06673033	     24.64966866	      0.62015385	     -3.45858496	    -19.58777279	     -5.89453114	      8.52945054	    -10.36434555	     -4.54521483	      8.98617045
      2.92000000	      0.79456153	     -0.21859901	      0.07271187	      0.21828342	      0.89774340	      0.09312427	     -2.11955672	      2.59893620	      0.15125392	    -33.28590859	     15.47151012	      2.30299132	     25.03249494	      0.34465269	     -3.38589710	    -18.85727701	     -6.68122120	     11.00458423	    -10.67651423	     -4.36911498	      8.77458705
      2.93000000	      0.77650720	     -0.31651985	      0.20290239	      0.20740794	      0.89706594	      0.09367078	     -1.53915234	      2.78423676	     -0.14345850	    -33.10301963	     16.42510199	      1.53122219	     25.41312126	      0.08888950	     -3.38695874	    -18.26626662	     -7.26843195	     13.58059524	    -10.97332143	     -4.16685485	      8.47389981
      2.94000000	      0.77443732	     -0.42141355	      0.41818007	      0.19677904	      0.89655306	      0.09401883	     -0.96855193	      2.97536029	     -0.53676479	    -32.93198946	     17.21998286	      0.74350105	     25.80420237	     -0.14496000	     -3.51105435	    -17.91588188	     -7.58524746	     16.06780304	    -11.25633330	     -3.94351158	      8.09339888
      2.95000000	      0.80435823	     -0.53767574	      0.70361910	      0.18640638	      0.89623483	      0.09417438	     -0.43325741	      3.17560531	     -1.00417941	    -32.75898800	     17.86065039	     -0.08334452	     26.21426996	     -0.36112584	     -3.77851226	    -17.90725068	     -7.56531621	     18.31826491	    -11.54273608	     -3.69319135	      7.64840756
      2.96000000	      0.87650351	     -0.65472101	      1.04381361	      0.17629784	      0.89613299	      0.09417455	      0.05451905	      3.37157392	     -1.52600486	    -32.58953188	     18.36371714	     -0.91929371	     26.64261426	     -0.55616817	     -4.18175927	    -18.30203111	     -7.19639964	     20.12916415	    -11.84202156	     -3.43356664	      7.14903788
      2.97000000	      0.98337219	     -0.76476835	      1.42036292	      0.16650393	      0.89628017	      0.09405112	      0.48674982	      3.54688408	     -2.10615501	    -32.39390742	     18.72066893	     -1.77597831	     27.06949863	     -0.73414018	     -4.72031926	    -19.08186448	     -6.55962445	     21.45348964	    -12.13007881	     -3.17771063	      6.65595467
      2.98000000	      1.13597312	     -0.86134241	      1.81435891	      0.15695460	      0.89667462	      0.09386500	      0.86447125	      3.70482257	     -2.66861547	    -32.19686385	     18.95690481	     -2.56373882	     27.48458046	     -0.90048083	     -5.30479568	    -20.26641380	     -5.65169482	     22.21512766	    -12.43735983	     -2.93996406	      6.14610997
      2.99000000	      1.32272161	     -0.93774153	      2.19458053	      0.14764770	      0.89730854	      0.09369598	      1.20800869	      3.83437037	     -3.20114093	    -32.01549469	     19.08367226	     -3.29640736	     27.86136814	     -1.07058065	     -5.90411774	    -21.78836160	     -4.56795596	     22.48626547	    -12.74720647	     -2.74054581	      5.66562475
      3.00000000	      1.53749654	     -1.00099666	      2.55666737	      0.13859440	      0.89819033	      0.09354929	      1.49685431	      3.95347468	     -3.63878417	    -31.80001482	     19.09462924	     -3.89445935	     28.17733316	     -1.25283906	     -6.45771046	    -23.58404088	     -3.36370437	     22.31423112	    -13.05042911	     -2.56887311	      5.22059704
      3.01000000	      1.74942695	     -1.03691945	      2.87006190	      0.12972542	      0.89924569	      0.09347420	      1.79812747	      4.03581877	     -3.99838286	    -31.61489762	     19.01833057	     -4.44895564	     28.44329104	     -1.44235052	     -6.93629343	    -25.58873469	     -2.11756730	     21.71424902	    -13.32340881	     -2.45080991	      4.84588307
      3.02000000	      1.96606094	     -1.05624351	      3.14024598	      0.12107669	      0.90050289	      0.09347476	      2.06386562	      4.10532046	     -4.23345143	    -31.38784198	     18.84752628	     -4.84514148	     28.62100932	     -1.64058685	     -7.28958908	    -27.72367906	     -0.87703396	     20.83722175	    -13.56753389	     -2.37541532	      4.52117401
      3.03000000	      2.14715627	     -1.02281657	      3.34653994	      0.11256100	      0.90186016	      0.09352875	      2.38203128	      4.10348180	     -4.39085416	    -31.20895855	     18.63243307	     -5.18528178	     28.73396322	     -1.80267197	     -7.52564541	    -29.91780196	      0.31401417	     19.62421313	    -13.75399516	     -2.38300873	      4.28102176
      3.04000000	      2.30999812	     -0.99278472	      3.51096733	      0.10423191	      0.90335473	      0.09363711	      2.66839063	      4.10833647	     -4.45072848	    -30.94574196	     18.33081624	     -5.40527575	     28.76806034	     -1.97972069	     -7.64301300	    -32.14781210	      1.40657155	     18.33008229	    -13.89240816	     -2.40735189	      4.09542628
      3.05000000	      2.43148681	     -0.93254828	      3.61237529	      0.09602440	      0.90490431	      0.09379129	      2.98683296	      4.06932754	     -4.44824464	    -30.67916718	     17.99025199	     -5.56977595	     28.73308867	     -2.13217986	     -7.66271417	    -34.35847693	      2.40316928	     16.88979947	    -13.96797406	     -2.48840027	      3.98126258
      3.06000000	      2.51331793	     -0.84541338	      3.65588229	      0.08794032	      0.90649552	      0.09395350	      3.32607241	      3.98780940	     -4.40330695	    -30.39207620	     17.60611698	     -5.68806516	     28.62372850	     -2.25774353	     -7.61471894	    -36.52079507	      3.25648124	     15.40038215	    -13.98291759	     -2.61514384	      3.93931388
      3.07000000	      2.56505671	     -0.77111837	      3.64682256	      0.07997092	      0.90811059	      0.09414001	      3.65394794	      3.91555900	     -4.31819545	    -30.02893242	     17.17162402	     -5.77169551	     28.44419898	     -2.39855964	     -7.50742657	    -38.63488786	      3.98493281	     13.97810237	    -13.94939877	     -2.74400467	      3.96106848
      3.08000000	      2.58340554	     -0.70313779	      3.58696111	      0.07209844	      0.90971221	      0.09432624	      3.99043292	      3.84266653	     -4.20410344	    -29.62472345	     16.69780729	     -5.84370466	     28.19411682	     -2.54361812	     -7.36138458	    -40.67651646	      4.57491006	     12.62169664	    -13.86506963	     -2.87588049	      4.04038483
      3.09000000	      2.56431134	     -0.62729350	      3.47742770	      0.06428068	      0.91126366	      0.09449120	      4.35729807	      3.75066296	     -4.07164851	    -29.21024268	     16.18374043	     -5.91308234	     27.87711261	     -2.67013681	     -7.18188528	    -42.62562935	      5.03270775	     11.32020085	    -13.73426062	     -3.02261339	      4.15750868
      3.10000000	      2.52565431	     -0.60277713	      3.32673944	      0.05654158	      0.91275186	      0.09465724	      4.71915896	      3.71087103	     -3.93445707	    -28.74430156	     15.63085699	     -5.96366184	     27.49301561	     -2.84860176	     -6.97624632	    -44.50198898	      5.36653770	     10.18040621	    -13.56915646	     -3.11668722	      4.33717432
      3.11000000	      2.45484513	     -0.59022629	      3.14170112	      0.04885968	      0.91415689	      0.09479510	      5.10143552	      3.67866271	     -3.78127920	    -28.25459371	     15.02741640	     -5.99549978	     27.03986670	     -3.02588348	     -6.75120867	    -46.26721726	      5.59018576	      9.13237131	    -13.36015229	     -3.20030153	      4.53262611
      3.12000000	      2.37355635	     -0.61199332	      2.92335001	      0.04120346	      0.91546968	      0.09490778	      5.49787001	      3.68027081	     -3.61761521	    -27.76758380	     14.39979417	     -6.00025768	     26.50438444	     -3.22571517	     -6.50265257	    -47.92706935	      5.71072343	      8.20612308	    -13.13874182	     -3.24291119	      4.75077853
      3.13000000	      2.29933689	     -0.68530391	      2.67168493	      0.03357921	      0.91670694	      0.09500946	      5.88207027	      3.74403262	     -3.40628694	    -27.26824998	     13.75442422	     -5.98161529	     25.86664412	     -3.46485744	     -6.22096680	    -49.47172885	      5.73394298	      7.49147688	    -12.92204961	     -3.22487001	      4.99935237
      3.14000000	      2.21098623	     -0.75272504	      2.40215666	      0.02598145	      0.91783103	      0.09502760	      6.30178201	      3.78920154	     -3.20918419	    -26.81485103	     13.10172390	     -5.93116929	     25.13963161	     -3.67329264	     -5.93648331	    -50.87827958	      5.69607072	      6.75945229	    -12.69135378	     -3.20392779	      5.22022115
      3.15000000	      2.12928750	     -0.83546981	      2.11725231	      0.01842444	      0.91886116	      0.09499347	      6.72658818	      3.84979536	     -2.99691938	    -26.39150393	     12.45292706	     -5.84764300	     24.30378981	     -3.87431675	     -5.63816434	    -52.14343660	      5.61460547	      6.12662440	    -12.46471567	     -3.16000257	      5.42821660
      3.16000000	      2.05152162	     -0.93383431	      1.81937078	      0.01089680	      0.91978851	      0.09491063	      7.15638820	      3.92629672	     -2.77477484	    -25.98981369	     11.81805263	     -5.72516983	     23.36525946	     -4.06632856	     -5.32576441	    -53.25992776	      5.51497833	      5.54758140	    -12.24331167	     -3.09367832	      5.61225029
